# xmcd
#
# Track frame offsets: 
#        150
#        12906
#        24341
#        41906
#        58661
#        68155
#        80845
#        104095
#        119122
#        135272
#        152847
#        159053
#        169998
#        182456
#        197612
#        210686
#        228256
#        237285
#        243690
#        260383
#        281846
#        307053
#        328433
#
# Disc length: 4594 seconds
#
# Revision: 2
# Processed by: cddbd v1.5.2PL0 Copyright (c) Steve Scherf et al.
# Submitted via: ExactAudioCopy v0.99pb5
#
DISCID=5211f017
DTITLE=Various Artist - I Have To Paint My Face: Mississippi Blues 1960
DYEAR=1960
DGENRE=Blues
TTITLE0=Sam Chatmon - I Have To Paint My Face
TTITLE1=K.C. Douglas - Big Road Blues
TTITLE2=Sam Chatmon - I Stand and Wonder
TTITLE3=Big Joe Williams - Texas Blues
TTITLE4=K.C. Douglas - Night Shirt Blues
TTITLE5=K.C. Douglas (with Bruce Bratton) - Mercury Blues (Mercury Boo
TTITLE5=gie)
TTITLE6=Sam Chatmon - Hollandale Blues
TTITLE7=Jasper Love (with Columbus Jones) - The Slop
TTITLE8=R.C. Smith - Stella Ruth
TTITLE9=Sam Chatmon - God Don't Like Ugly
TTITLE10=Wade Walton - Rooster Blues
TTITLE11=Wade Walton (with R.C. Smith) - Barbershop Rhythm
TTITLE12=R.C. Smith - Going Back to Texas
TTITLE13=K.C. Douglas (with Sidney Maiden) - Blues and Trouble
TTITLE14=R.C. Smith - Lonely Widower
TTITLE15=R.C. Smith - Lost Love Blues
TTITLE16=Big Joe Williams - Married Woman Blues
TTITLE17=Jasper Love - Love's Honeydripper
TTITLE18=Jasper Love - Desert Blues
TTITLE19=Butch Cage and Willie Thomas - One Thin Dime
TTITLE20=Butch Cage and Willie Thomas - Butch's Blues
TTITLE21=Butch Cage and Willie Thomas - Forty Four Blues
TTITLE22=Sidney Maiden (with K.C. Douglas) - Chicago Blues
EXTD=YEAR: 1960
EXTT0=
EXTT1=
EXTT2=
EXTT3=
EXTT4=
EXTT5=
EXTT6=
EXTT7=
EXTT8=
EXTT9=
EXTT10=
EXTT11=
EXTT12=
EXTT13=
EXTT14=
EXTT15=
EXTT16=
EXTT17=
EXTT18=
EXTT19=
EXTT20=
EXTT21=
EXTT22=
PLAYORDER=
